PathFileType	4	(X/Y/Z)	Patient4_TMGait_0pt4_01_left_02.trc.trc
DataRate	CameraRate	NumFrames	NumMarkers	Units	OrigDataRate	OrigDataStartFrame	OrigNumFrames
74.468085106383	74.468085106383	4	33	mm	74.468085106383	71	       141
Frame#	Time	Sacral			L.Shoulder			Chest			R.Shoulder			Neck			R.ASIS			L.ASIS			R.Thigh.Superior			R.Thigh.Lateral			R.Thigh.Inferior			R.Patella			L.Thigh.Superior			L.Thigh.Lateral			L.Thigh.Inferior			L.Patella			L.Shank.Superior			L.Shank.Lateral			L.Shank.Inferior			R.Shank.Superior			R.Shank.Lateral			R.Shank.Inferior			R.Heel			R.Midfoot.Superior			R.Midfoot.Lateral			R.Toe			L.Heel			L.Midfoot.Lateral			L.Midfoot.Superior			L.Toe			L.Elbow			L.Wrist			R.Elbow			R.Wrist			
		X1	Y1	Z1	X2	Y2	Z2	X3	Y3	Z3	X4	Y4	Z4	X5	Y5	Z5	X6	Y6	Z6	X7	Y7	Z7	X8	Y8	Z8	X9	Y9	Z9	X10	Y10	Z10	X11	Y11	Z11	X12	Y12	Z12	X13	Y13	Z13	X14	Y14	Z14	X15	Y15	Z15	X16	Y16	Z16	X17	Y17	Z17	X18	Y18	Z18	X19	Y19	Z19	X20	Y20	Z20	X21	Y21	Z21	X22	Y22	Z22	X23	Y23	Z23	X24	Y24	Z24	X25	Y25	Z25	X26	Y26	Z26	X27	Y27	Z27	X28	Y28	Z28	X29	Y29	Z29	X30	Y30	Z30	X31	Y31	Z31	X32	Y32	Z32	X33	Y33	Z33	

71	2.330000000000	856.565220342110	1002.005386987751	438.074150477024	1063.413746827601	1422.311732131586	249.320540022878	1146.967060106153	1358.205028615574	421.915285846728	1050.400912122171	1442.780264359736	583.894056102287	1049.350975943452	1491.637722394705	400.222349942935	1079.706136112840	942.916982155593	571.059326501259	1078.477409287118	956.071932779998	295.584435787834	1143.336328671194	757.245064710041	550.418856220889	1088.301961959721	642.270177932083	626.072298264551	1172.844781229886	596.063543341877	545.678302172033	1199.818743889387	519.279493068541	561.894395173539	1088.582364748127	732.927466759123	326.242392614525	977.851069117553	634.137853637388	259.821719810780	1038.686899314728	543.398687594534	326.049493638419	1024.089310358887	477.717915461692	336.063733804677	992.599812714922	410.155345317579	327.151130678292	892.440505146715	305.001420945158	277.288069990942	929.986736711236	189.606164205579	349.558148016488	1189.402816841065	432.943861827051	576.178556587194	1145.218699604979	320.121319368488	647.386175497838	1215.965510180285	235.253401387901	594.523811686403	1127.700468626280	48.074177339789	578.132417646294	1294.049049270436	121.563588812040	605.528095742295	1218.020905771728	45.149065288632	644.093041652064	1419.633059433680	82.768847176545	618.832808126323	792.071904373286	40.014013681387	395.708872062210	862.696499899528	35.544439638994	312.612791872421	948.175607621334	95.728837429322	336.289207886530	1074.736143242027	40.301048337835	302.571973690256	1091.410560732897	1076.961622924865	120.536461937070	1316.114067257392	952.025091879951	149.324764810393	905.887706644380	1137.016309639246	711.771311283193	882.184909675932	882.694230296059	762.500074825528	
72	2.343428571429	858.243438803856	1000.362613486238	440.724157233221	1062.978240497565	1421.337931989909	251.771610699163	1147.053014188916	1357.601770226928	424.275121097261	1050.237220001144	1441.815085339075	586.351400403328	1049.052929653853	1490.634213725283	402.682742181030	1081.626904566056	941.603914471149	573.299112197337	1079.933915873567	955.325937094193	297.865343485494	1144.884153644202	755.204133732731	552.928995153517	1087.740800136249	639.547914751018	626.570516423132	1173.090828359002	594.113887878141	546.858947949866	1198.662137861713	517.037545656206	561.938945745927	1088.880654323905	731.787723496232	327.570840565621	977.030200478041	633.867800502841	261.361494141431	1037.464892812744	542.479241882526	326.946181704734	1022.393599458332	476.580296803051	336.902717206372	990.259596305375	409.349337962377	327.839646053443	888.788798610996	305.310551790601	277.874222821408	925.504051420688	189.295211109556	349.696447243003	1188.108829159423	429.979671185365	575.683646156130	1142.872514387210	317.091044507095	645.814862281282	1213.157517540232	232.162412465790	592.800908705952	1123.673044186970	46.261727616774	575.747157683066	1290.238343996100	118.592137867268	602.916270354121	1213.825412446735	43.214446136749	641.871213580148	1415.578336829163	79.115850662698	616.511284784472	786.666839923889	40.121377204058	395.623858752362	857.302829610987	35.556822033652	312.597454473636	942.796587999849	95.727177795854	336.243412806720	1069.312012238553	40.167970307484	302.535579155694	1093.388533679482	1075.979783101334	123.588959490071	1319.453345269104	953.771556764301	152.954051479329	906.260909690209	1135.334218742743	712.859468364530	884.602166535875	880.265479262440	761.635128876396	
73	2.356857142857	859.992727473024	998.720458974240	443.631324578299	1062.531749112217	1420.345123736078	254.418552653335	1147.202039492198	1357.010191204721	426.809266867770	1050.179947868608	1440.831531338753	589.048052126722	1048.781899101730	1489.627362528800	405.351461835064	1083.764456451598	940.292567294874	575.667553046029	1081.610548787041	954.662986128835	300.202669852003	1147.027531868351	753.430173895572	555.248872332004	1087.957487357695	637.033273491804	626.844678025352	1174.121397165311	592.497400521139	547.810068092357	1198.238703535299	514.801872567450	561.727429116879	1089.312100403621	730.659863264978	328.934394204885	976.344996945522	633.585242270314	263.034146239702	1036.503013639068	541.536498379155	327.900164766690	1021.003713564928	475.331439053317	337.791390828001	988.136474287588	408.483689610747	328.581270989983	885.229521881053	305.667167091485	278.564936106089	921.082935873620	188.983922067688	349.875645017316	1187.215519098366	426.914610071914	574.944983272258	1140.474331698098	314.201077818901	644.130731580370	1209.670259142901	228.830408334294	590.873265058862	1117.793585126880	44.828726324050	573.483253095299	1284.964460245589	115.167562524296	600.112925473934	1207.792694489801	41.454000632224	639.783523819813	1409.905786511429	74.405457637191	614.138954138990	781.250670621931	40.273717041456	395.533792385594	851.910849226739	35.592631241011	312.585779966221	937.431187383357	95.748360667362	336.194303538044	1063.891186302502	40.031622730375	302.488480304254	1094.804640281325	1074.895892793635	126.847675075320	1322.034867747969	955.030444690645	156.618181280901	907.315417127474	1133.345800541039	714.364905828837	888.403516542231	877.430949297744	760.877427244936	
74	2.370285714286	861.769457951974	997.133888670942	446.759113455563	1062.113763754722	1419.375479377286	257.260697012511	1147.437544952130	1356.448737491520	429.517319071877	1050.254384864006	1439.853119599651	591.969787946041	1048.581880777791	1488.658790328562	408.230306564719	1086.075022046097	939.034166577873	578.140853173210	1083.520692775752	954.109486020055	302.561135831515	1149.651443368500	751.924182044387	557.316003662011	1088.934325424714	634.825604201822	626.981973037994	1175.784381075086	591.210610924992	548.498902146135	1198.441401655569	512.646180650797	561.270081662632	1089.894703724873	729.584119827356	330.325538449639	975.846496910426	633.288006518939	264.836420729736	1035.883779355890	540.587703824303	328.910114038793	1020.030516898599	473.971423767885	338.704932436436	986.295242771439	407.559707605150	329.374018509072	881.821275458314	306.097432638358	279.365979001240	916.755040570222	188.689405637843	350.086680770684	1186.749494704622	423.910377525827	574.045812260249	1138.314600672753	311.557782398931	642.524177733931	1205.894558245855	225.463796766943	588.874824727227	1110.769364638794	43.750249540157	571.514918185589	1278.818419376090	111.584161004073	597.283769876555	1200.661570474470	39.950347072462	637.961158994023	1403.288149461328	69.156980147219	611.810942344812	775.829129093078	40.526942105549	395.436992390254	846.527207909952	35.674632856219	312.574879739567	932.102652605311	95.797758797041	336.131555950071	1058.485360972438	39.888034726903	302.425451897652	1095.665811823494	1073.739327161979	130.302471831939	1323.845635676410	955.752339683668	160.284725602652	909.047000044034	1131.111446704749	716.306206602190	893.544908599542	874.287335659696	760.278162290343	
